<?xml version="1.0" standalone="no"?>
<!DOCTYPE svg PUBLIC "-//W3C//DTD SVG 20010904//EN"
 "http://www.w3.org/TR/2001/REC-SVG-20010904/DTD/svg10.dtd">
<svg version="1.0" xmlns="http://www.w3.org/2000/svg"
 width="512.000000pt" height="512.000000pt" viewBox="0 0 512.000000 512.000000"
 preserveAspectRatio="xMidYMid meet">

<g transform="translate(0.000000,512.000000) scale(0.100000,-0.100000)"
fill="#ff3b30" stroke="none">
<path d="M1343 4255 c-68 -29 -63 111 -61 -1814 l3 -1739 24 -26 c48 -51 142
-40 170 20 8 18 11 238 11 754 l0 729 30 21 c48 34 171 88 251 109 121 33 237
43 349 31 178 -20 300 -65 466 -176 195 -128 317 -183 486 -218 299 -62 639 5
886 173 102 69 92 -34 92 979 l0 894 -29 29 c-44 43 -91 40 -172 -13 -89 -57
-214 -115 -306 -140 -106 -29 -355 -31 -453 -5 -149 41 -224 76 -365 173 -127
86 -278 158 -402 190 -80 22 -129 27 -263 31 -195 6 -310 -13 -472 -77 l-98
-38 0 27 c0 36 -26 70 -66 87 -40 17 -41 17 -81 -1z m859 -219 c150 -29 247
-72 403 -176 126 -84 235 -140 343 -174 281 -88 576 -72 855 48 l37 16 -2
-732 -3 -732 -92 -47 c-223 -113 -484 -136 -717 -62 -105 33 -176 69 -312 159
-209 139 -389 203 -620 220 -158 12 -386 -27 -528 -90 -32 -14 -62 -26 -67
-26 -5 0 -9 317 -9 725 l0 725 53 30 c84 48 196 91 287 111 104 22 272 24 372
5z"/>
</g>
</svg>
