<?xml version="1.0" standalone="no"?>
<!DOCTYPE svg PUBLIC "-//W3C//DTD SVG 20010904//EN"
 "http://www.w3.org/TR/2001/REC-SVG-20010904/DTD/svg10.dtd">
<svg version="1.0" xmlns="http://www.w3.org/2000/svg"
 width="512.000000pt" height="512.000000pt" viewBox="0 0 512.000000 512.000000"
 preserveAspectRatio="xMidYMid meet">

<g transform="translate(0.000000,512.000000) scale(0.100000,-0.100000)"
fill="#007aff" stroke="none">
<path d="M1665 4221 c-16 -10 -389 -378 -827 -818 l-798 -798 0 -45 0 -45 802
-803 c442 -442 816 -810 832 -819 66 -34 141 15 141 93 l0 44 -715 715 -715
715 2316 0 2316 0 26 24 c48 44 48 108 0 152 l-26 24 -2316 0 -2316 0 713 713
c624 624 713 717 718 748 7 44 -7 74 -49 99 -40 25 -64 25 -102 1z"/>
</g>
</svg>
