<?xml version="1.0" standalone="no"?>
<!DOCTYPE svg PUBLIC "-//W3C//DTD SVG 20010904//EN"
 "http://www.w3.org/TR/2001/REC-SVG-20010904/DTD/svg10.dtd">
<svg version="1.0" xmlns="http://www.w3.org/2000/svg"
 width="512.000000pt" height="512.000000pt" viewBox="0 0 512.000000 512.000000"
 preserveAspectRatio="xMidYMid meet">

<g transform="translate(0.000000,512.000000) scale(0.100000,-0.100000)"
fill="#007aff" stroke="none">
<path d="M3353 4220 c-42 -25 -56 -55 -49 -99 5 -31 94 -124 718 -748 l713
-713 -2316 0 -2316 0 -26 -24 c-48 -44 -48 -108 0 -152 l26 -24 2316 0 2316 0
-713 -713 c-666 -666 -714 -716 -719 -753 -10 -76 67 -132 138 -101 21 9 346
328 837 819 l802 803 0 45 0 45 -802 803 c-442 442 -815 810 -830 818 -36 19
-57 18 -95 -6z"/>
</g>
</svg>
