<?xml version="1.0" standalone="no"?>
<!DOCTYPE svg PUBLIC "-//W3C//DTD SVG 20010904//EN"
 "http://www.w3.org/TR/2001/REC-SVG-20010904/DTD/svg10.dtd">
<svg version="1.0" xmlns="http://www.w3.org/2000/svg"
 width="512.000000pt" height="512.000000pt" viewBox="0 0 512.000000 512.000000"
 preserveAspectRatio="xMidYMid meet">

<g transform="translate(0.000000,512.000000) scale(0.100000,-0.100000)"
fill="#007aff" stroke="none">
<path d="M2840 5079 c-693 -78 -1303 -512 -1611 -1145 -94 -193 -166 -450
-188 -668 -5 -54 -12 -100 -14 -102 -2 -2 -156 -3 -341 -2 l-338 3 151 188
c158 195 166 212 140 270 -13 29 -58 57 -91 57 -12 0 -35 -8 -50 -18 -15 -9
-116 -127 -224 -262 -108 -135 -207 -256 -219 -270 -31 -34 -40 -74 -25 -111
9 -21 100 -101 298 -260 264 -213 287 -229 324 -229 55 0 98 43 98 97 0 21 -6
47 -14 58 -8 11 -82 74 -165 140 -82 66 -150 123 -150 128 -1 4 167 7 372 7
398 0 400 0 427 50 5 10 15 83 20 162 18 256 72 461 180 683 181 373 488 677
865 856 654 309 1433 199 1982 -280 519 -453 739 -1174 562 -1841 -127 -477
-442 -882 -879 -1130 -237 -134 -503 -209 -809 -229 -123 -8 -125 -8 -153 -40
l-28 -31 0 -531 0 -531 34 -34 c59 -59 143 -37 166 44 6 23 10 207 10 480 l0
442 35 0 c61 0 254 30 348 55 150 39 245 74 384 140 216 103 362 205 537 375
184 179 302 340 412 565 304 618 274 1347 -78 1934 -330 549 -904 915 -1538
981 -111 11 -323 11 -430 -1z"/>
<path d="M2920 4490 c-486 -68 -884 -350 -1100 -779 -284 -566 -146 -1266 333
-1689 183 -162 411 -276 659 -329 119 -26 438 -25 558 1 501 109 905 469 1064
949 51 156 61 226 61 447 0 191 -2 213 -28 314 -30 121 -83 261 -130 346 -208
377 -558 637 -970 721 -116 23 -345 33 -447 19z m381 -216 c442 -84 793 -387
934 -806 126 -378 60 -794 -176 -1108 -441 -586 -1288 -654 -1812 -146 -493
476 -490 1272 5 1742 173 165 368 266 603 314 117 24 331 26 446 4z"/>
</g>
</svg>
