<?xml version="1.0" standalone="no"?>
<!DOCTYPE svg PUBLIC "-//W3C//DTD SVG 20010904//EN"
 "http://www.w3.org/TR/2001/REC-SVG-20010904/DTD/svg10.dtd">
<svg version="1.0" xmlns="http://www.w3.org/2000/svg"
 width="512.000000pt" height="512.000000pt" viewBox="0 0 512.000000 512.000000"
 preserveAspectRatio="xMidYMid meet">

<g transform="translate(0.000000,512.000000) scale(0.100000,-0.100000)"
fill="#007aff" stroke="none">
<path d="M1485 5073 c-274 -35 -539 -136 -752 -286 -107 -76 -281 -246 -355
-347 -462 -633 -412 -1487 121 -2043 317 -330 705 -497 1156 -497 329 0 610
85 882 266 342 227 590 592 674 989 75 361 29 720 -136 1050 -237 473 -692
793 -1228 865 -74 9 -296 12 -362 3z m409 -218 c487 -85 900 -434 1066 -900
53 -150 70 -245 76 -415 9 -244 -28 -433 -127 -639 -75 -158 -149 -262 -279
-391 -205 -205 -418 -320 -703 -382 -143 -31 -408 -31 -547 0 -571 125 -998
568 -1094 1131 -20 121 -21 340 -1 457 46 265 171 518 351 713 324 348 793
507 1258 426z"/>
<path d="M4369 4091 c-23 -23 -29 -38 -29 -70 0 -45 -8 -35 268 -336 l110
-120 -471 -5 c-288 -3 -478 -9 -488 -15 -37 -24 -47 -58 -52 -195 -30 -732
-471 -1411 -1137 -1749 -267 -136 -545 -210 -856 -227 -120 -7 -129 -9 -158
-35 l-31 -27 0 -607 0 -607 33 -29 c44 -39 90 -39 134 0 l33 29 3 535 3 534
117 12 c961 97 1762 785 1998 1717 33 134 64 321 64 397 0 23 4 48 8 55 7 9
92 12 392 10 l383 -3 -189 -174 c-104 -96 -195 -185 -202 -199 -32 -57 23
-142 92 -142 43 0 55 10 380 310 288 265 300 280 281 340 -6 20 -455 515 -541
598 -46 44 -102 45 -145 3z"/>
</g>
</svg>
