<?xml version="1.0" standalone="no"?>
<!DOCTYPE svg PUBLIC "-//W3C//DTD SVG 20010904//EN"
 "http://www.w3.org/TR/2001/REC-SVG-20010904/DTD/svg10.dtd">
<svg version="1.0" xmlns="http://www.w3.org/2000/svg"
 width="512.000000pt" height="512.000000pt" viewBox="0 0 512.000000 512.000000"
 preserveAspectRatio="xMidYMid meet">

<g transform="translate(0.000000,512.000000) scale(0.100000,-0.100000)"
fill="#007aff" stroke="none">
<path d="M2264 5090 c-28 -11 -434 -439 -445 -469 -13 -33 -3 -74 26 -105 19
-21 33 -26 70 -26 45 0 47 1 163 121 l117 121 -3 -300 c-3 -213 -1 -305 7
-321 21 -39 54 -52 152 -57 399 -22 736 -170 1007 -445 286 -291 432 -646 432
-1054 0 -419 -158 -788 -463 -1081 -260 -250 -576 -390 -938 -414 -70 -4 -136
-13 -148 -19 -50 -27 -51 -39 -51 -501 0 -477 0 -479 63 -505 61 -25 128 11
141 76 3 18 6 191 6 385 l0 354 23 4 c12 2 63 9 112 15 680 87 1264 625 1421
1311 109 477 -2 1001 -295 1391 -97 128 -264 292 -391 381 -222 157 -510 267
-784 297 -42 5 -79 11 -82 13 -2 3 -3 115 -2 249 l3 244 127 -122 c124 -119
129 -123 171 -123 70 0 119 60 103 124 -7 29 -433 442 -470 456 -32 12 -43 12
-72 0z"/>
<path d="M2130 3755 c-165 -26 -325 -88 -469 -181 -99 -65 -267 -228 -329
-320 -89 -133 -154 -287 -188 -446 -24 -110 -24 -361 0 -466 109 -483 459
-832 936 -934 124 -27 328 -29 453 -4 527 103 914 527 968 1060 49 483 -218
963 -657 1180 -222 110 -473 149 -714 111z m372 -209 c391 -76 699 -381 780
-776 26 -125 21 -326 -12 -445 -84 -309 -317 -566 -612 -674 -128 -47 -178
-55 -343 -55 -135 0 -173 3 -245 23 -342 92 -604 348 -706 688 -36 118 -45
329 -20 452 40 196 124 357 260 499 144 150 305 240 516 287 77 18 293 18 382
1z"/>
</g>
</svg>
